<svg width="24" height="30" viewBox="0 0 24 30" fill="none" xmlns="http://www.w3.org/2000/svg">
<g clip-path="url(#clip0)">
<path d="M9.86523 14.7189H14.0963V18.6753H9.86523V14.7189Z" fill="#01133D"/>
<path d="M9.86523 20.4382H14.0963V24.3945H9.86523V20.4382Z" fill="#01133D"/>
<path d="M15.5068 20.4382H19.7686V24.3945H15.5068V20.4382Z" fill="#01133D"/>
<path d="M4.23145 14.7189H8.45496V18.6753H4.23145V14.7189Z" fill="#01133D"/>
<path d="M15.5068 14.7189H19.7686V18.6753H15.5068V14.7189Z" fill="#01133D"/>
<path d="M0 29.0959H24V10.605H0V29.0959ZM21.1791 12.9558V26.1575H2.82092V12.9558H21.1791Z" fill="#01133D"/>
<path d="M4.23145 20.4382H8.45496V24.3945H4.23145V20.4382Z" fill="#01133D"/>
<path d="M24 2.96521H19.9759V6.81432H18.5654V2.96521H15.2743V6.81432H13.8638V2.96521H10.5269V6.81432H9.11664V2.96521H5.82532V6.81432H4.41504V2.96521H0V8.84221H24V2.96521Z" fill="#01133D"/>
<path d="M18.5654 0.878906H19.9759V2.96082H18.5654V0.878906Z" fill="#01133D"/>
<path d="M13.8638 0.878906H15.2742V2.96082H13.8638V0.878906Z" fill="#01133D"/>
<path d="M4.41504 0.878906H5.82532V2.96082H4.41504V0.878906Z" fill="#01133D"/>
<path d="M9.1167 0.878906H10.527V2.96082H9.1167V0.878906Z" fill="#01133D"/>
</g>
<defs>
<clipPath id="clip0">
<rect width="24" height="30" fill="white"/>
</clipPath>
</defs>
</svg>
