<svg width="177" height="181" viewBox="0 0 177 181" fill="none" xmlns="http://www.w3.org/2000/svg">
<rect x="3" y="3" width="170" height="170" rx="85" fill="white"/>
<path d="M35.78 163.16C35.4067 162.653 34.92 162.287 34.32 162.06C33.72 161.82 33.1333 161.7 32.56 161.7C31.8267 161.7 31.16 161.833 30.56 162.1C29.96 162.367 29.44 162.733 29 163.2C28.5733 163.667 28.24 164.213 28 164.84C27.7733 165.467 27.66 166.147 27.66 166.88C27.66 167.653 27.7733 168.36 28 169C28.2267 169.64 28.5467 170.193 28.96 170.66C29.3867 171.113 29.8933 171.467 30.48 171.72C31.0667 171.973 31.7267 172.1 32.46 172.1C33.22 172.1 33.8933 171.953 34.48 171.66C35.0667 171.353 35.54 170.953 35.9 170.46L37.92 171.88C37.2933 172.667 36.5267 173.28 35.62 173.72C34.7133 174.147 33.6533 174.36 32.44 174.36C31.3333 174.36 30.3133 174.18 29.38 173.82C28.46 173.447 27.6667 172.933 27 172.28C26.3333 171.613 25.8133 170.827 25.44 169.92C25.0667 169 24.88 167.987 24.88 166.88C24.88 165.747 25.0733 164.727 25.46 163.82C25.86 162.9 26.4 162.12 27.08 161.48C27.7733 160.84 28.5867 160.347 29.52 160C30.4533 159.653 31.4667 159.48 32.56 159.48C33.0133 159.48 33.4867 159.527 33.98 159.62C34.4733 159.7 34.9467 159.833 35.4 160.02C35.8533 160.193 36.28 160.413 36.68 160.68C37.08 160.947 37.42 161.267 37.7 161.64L35.78 163.16ZM38.5714 169.16C38.5714 168.4 38.7047 167.713 38.9714 167.1C39.2514 166.473 39.6247 165.94 40.0914 165.5C40.5581 165.06 41.1114 164.72 41.7514 164.48C42.3914 164.24 43.0714 164.12 43.7914 164.12C44.5114 164.12 45.1914 164.24 45.8314 164.48C46.4714 164.72 47.0247 165.06 47.4914 165.5C47.9581 165.94 48.3247 166.473 48.5914 167.1C48.8714 167.713 49.0114 168.4 49.0114 169.16C49.0114 169.92 48.8714 170.613 48.5914 171.24C48.3247 171.867 47.9581 172.407 47.4914 172.86C47.0247 173.3 46.4714 173.647 45.8314 173.9C45.1914 174.153 44.5114 174.28 43.7914 174.28C43.0714 174.28 42.3914 174.153 41.7514 173.9C41.1114 173.647 40.5581 173.3 40.0914 172.86C39.6247 172.407 39.2514 171.867 38.9714 171.24C38.7047 170.613 38.5714 169.92 38.5714 169.16ZM41.0114 169.16C41.0114 169.533 41.0647 169.907 41.1714 170.28C41.2914 170.653 41.4647 170.987 41.6914 171.28C41.9181 171.573 42.2047 171.813 42.5514 172C42.8981 172.187 43.3114 172.28 43.7914 172.28C44.2714 172.28 44.6847 172.187 45.0314 172C45.3781 171.813 45.6647 171.573 45.8914 171.28C46.1181 170.987 46.2847 170.653 46.3914 170.28C46.5114 169.907 46.5714 169.533 46.5714 169.16C46.5714 168.787 46.5114 168.42 46.3914 168.06C46.2847 167.687 46.1181 167.353 45.8914 167.06C45.6647 166.767 45.3781 166.533 45.0314 166.36C44.6847 166.173 44.2714 166.08 43.7914 166.08C43.3114 166.08 42.8981 166.173 42.5514 166.36C42.2047 166.533 41.9181 166.767 41.6914 167.06C41.4647 167.353 41.2914 167.687 41.1714 168.06C41.0647 168.42 41.0114 168.787 41.0114 169.16ZM51.3384 164.4H53.6184V165.94H53.6584C53.8718 165.46 54.2384 165.04 54.7584 164.68C55.2918 164.307 55.9184 164.12 56.6384 164.12C57.2651 164.12 57.7984 164.233 58.2384 164.46C58.6918 164.673 59.0584 164.96 59.3384 165.32C59.6318 165.68 59.8451 166.093 59.9784 166.56C60.1118 167.027 60.1784 167.507 60.1784 168V174H57.7784V168.68C57.7784 168.4 57.7584 168.107 57.7184 167.8C57.6784 167.493 57.5918 167.22 57.4584 166.98C57.3251 166.727 57.1384 166.52 56.8984 166.36C56.6718 166.2 56.3651 166.12 55.9784 166.12C55.5918 166.12 55.2584 166.2 54.9784 166.36C54.6984 166.507 54.4651 166.7 54.2784 166.94C54.1051 167.18 53.9718 167.46 53.8784 167.78C53.7851 168.087 53.7384 168.4 53.7384 168.72V174H51.3384V164.4ZM68.2391 166.96C68.0257 166.68 67.7324 166.44 67.3591 166.24C66.9857 166.027 66.5791 165.92 66.1391 165.92C65.7524 165.92 65.3991 166 65.0791 166.16C64.7591 166.32 64.5991 166.587 64.5991 166.96C64.5991 167.333 64.7724 167.6 65.1191 167.76C65.4791 167.907 65.9991 168.06 66.6791 168.22C67.0391 168.3 67.3991 168.407 67.7591 168.54C68.1324 168.673 68.4657 168.853 68.7591 169.08C69.0657 169.293 69.3124 169.567 69.4991 169.9C69.6857 170.22 69.7791 170.613 69.7791 171.08C69.7791 171.667 69.6657 172.167 69.4391 172.58C69.2257 172.98 68.9324 173.307 68.5591 173.56C68.1991 173.813 67.7724 173.993 67.2791 174.1C66.7991 174.22 66.2991 174.28 65.7791 174.28C65.0324 174.28 64.3057 174.147 63.5991 173.88C62.8924 173.6 62.3057 173.207 61.8391 172.7L63.4191 171.22C63.6857 171.567 64.0324 171.853 64.4591 172.08C64.8857 172.307 65.3591 172.42 65.8791 172.42C66.0524 172.42 66.2257 172.4 66.3991 172.36C66.5857 172.32 66.7524 172.26 66.8991 172.18C67.0591 172.087 67.1857 171.967 67.2791 171.82C67.3724 171.673 67.4191 171.493 67.4191 171.28C67.4191 170.88 67.2324 170.593 66.8591 170.42C66.4991 170.247 65.9524 170.073 65.2191 169.9C64.8591 169.82 64.5057 169.72 64.1591 169.6C63.8257 169.467 63.5257 169.3 63.2591 169.1C62.9924 168.887 62.7791 168.627 62.6191 168.32C62.4591 168.013 62.3791 167.633 62.3791 167.18C62.3791 166.647 62.4857 166.187 62.6991 165.8C62.9257 165.413 63.2191 165.1 63.5791 164.86C63.9391 164.607 64.3457 164.42 64.7991 164.3C65.2524 164.18 65.7191 164.12 66.1991 164.12C66.8924 164.12 67.5657 164.24 68.2191 164.48C68.8857 164.72 69.4124 165.087 69.7991 165.58L68.2391 166.96ZM71.3058 169.16C71.3058 168.4 71.4391 167.713 71.7058 167.1C71.9858 166.473 72.3591 165.94 72.8258 165.5C73.2924 165.06 73.8458 164.72 74.4858 164.48C75.1258 164.24 75.8058 164.12 76.5258 164.12C77.2458 164.12 77.9258 164.24 78.5658 164.48C79.2058 164.72 79.7591 165.06 80.2258 165.5C80.6924 165.94 81.0591 166.473 81.3258 167.1C81.6058 167.713 81.7458 168.4 81.7458 169.16C81.7458 169.92 81.6058 170.613 81.3258 171.24C81.0591 171.867 80.6924 172.407 80.2258 172.86C79.7591 173.3 79.2058 173.647 78.5658 173.9C77.9258 174.153 77.2458 174.28 76.5258 174.28C75.8058 174.28 75.1258 174.153 74.4858 173.9C73.8458 173.647 73.2924 173.3 72.8258 172.86C72.3591 172.407 71.9858 171.867 71.7058 171.24C71.4391 170.613 71.3058 169.92 71.3058 169.16ZM73.7458 169.16C73.7458 169.533 73.7991 169.907 73.9058 170.28C74.0258 170.653 74.1991 170.987 74.4258 171.28C74.6524 171.573 74.9391 171.813 75.2858 172C75.6324 172.187 76.0458 172.28 76.5258 172.28C77.0058 172.28 77.4191 172.187 77.7658 172C78.1124 171.813 78.3991 171.573 78.6258 171.28C78.8524 170.987 79.0191 170.653 79.1258 170.28C79.2458 169.907 79.3058 169.533 79.3058 169.16C79.3058 168.787 79.2458 168.42 79.1258 168.06C79.0191 167.687 78.8524 167.353 78.6258 167.06C78.3991 166.767 78.1124 166.533 77.7658 166.36C77.4191 166.173 77.0058 166.08 76.5258 166.08C76.0458 166.08 75.6324 166.173 75.2858 166.36C74.9391 166.533 74.6524 166.767 74.4258 167.06C74.1991 167.353 74.0258 167.687 73.9058 168.06C73.7991 168.42 73.7458 168.787 73.7458 169.16ZM84.1128 158.88H86.5128V174H84.1128V158.88ZM89.4644 164.4H91.8644V174H89.4644V164.4ZM89.1244 161.14C89.1244 160.753 89.2644 160.42 89.5444 160.14C89.8377 159.847 90.2044 159.7 90.6444 159.7C91.0844 159.7 91.451 159.84 91.7444 160.12C92.051 160.387 92.2044 160.727 92.2044 161.14C92.2044 161.553 92.051 161.9 91.7444 162.18C91.451 162.447 91.0844 162.58 90.6444 162.58C90.2044 162.58 89.8377 162.44 89.5444 162.16C89.2644 161.867 89.1244 161.527 89.1244 161.14ZM104.536 174H102.256V172.56H102.216C101.883 173.12 101.416 173.547 100.816 173.84C100.229 174.133 99.5959 174.28 98.9159 174.28C98.1826 174.28 97.5226 174.147 96.9359 173.88C96.3626 173.6 95.8693 173.233 95.4559 172.78C95.0559 172.313 94.7426 171.773 94.5159 171.16C94.3026 170.533 94.1959 169.867 94.1959 169.16C94.1959 168.453 94.3093 167.793 94.5359 167.18C94.7626 166.567 95.0826 166.033 95.4959 165.58C95.9093 165.127 96.4026 164.773 96.9759 164.52C97.5493 164.253 98.1759 164.12 98.8559 164.12C99.2959 164.12 99.6893 164.173 100.036 164.28C100.383 164.373 100.683 164.493 100.936 164.64C101.203 164.787 101.429 164.947 101.616 165.12C101.803 165.293 101.956 165.46 102.076 165.62H102.136V158.88H104.536V174ZM96.6359 169.16C96.6359 169.533 96.6893 169.907 96.7959 170.28C96.9159 170.653 97.0893 170.987 97.3159 171.28C97.5426 171.573 97.8293 171.813 98.1759 172C98.5226 172.187 98.9293 172.28 99.3959 172.28C99.8359 172.28 100.229 172.193 100.576 172.02C100.923 171.833 101.216 171.593 101.456 171.3C101.709 171.007 101.896 170.68 102.016 170.32C102.149 169.947 102.216 169.573 102.216 169.2C102.216 168.827 102.149 168.453 102.016 168.08C101.896 167.707 101.709 167.373 101.456 167.08C101.216 166.787 100.923 166.547 100.576 166.36C100.229 166.173 99.8359 166.08 99.3959 166.08C98.9293 166.08 98.5226 166.173 98.1759 166.36C97.8293 166.533 97.5426 166.767 97.3159 167.06C97.0893 167.353 96.9159 167.687 96.7959 168.06C96.6893 168.42 96.6359 168.787 96.6359 169.16ZM113.412 172.78H113.352C113.112 173.207 112.725 173.56 112.192 173.84C111.658 174.107 111.052 174.24 110.372 174.24C109.985 174.24 109.578 174.187 109.152 174.08C108.738 173.987 108.352 173.827 107.992 173.6C107.645 173.36 107.352 173.053 107.112 172.68C106.885 172.293 106.772 171.82 106.772 171.26C106.772 170.54 106.972 169.967 107.372 169.54C107.785 169.113 108.312 168.787 108.952 168.56C109.592 168.333 110.298 168.187 111.072 168.12C111.858 168.04 112.625 168 113.372 168V167.76C113.372 167.16 113.152 166.72 112.712 166.44C112.285 166.147 111.772 166 111.172 166C110.665 166 110.178 166.107 109.712 166.32C109.245 166.533 108.858 166.793 108.552 167.1L107.312 165.64C107.858 165.133 108.485 164.753 109.192 164.5C109.912 164.247 110.638 164.12 111.372 164.12C112.225 164.12 112.925 164.24 113.472 164.48C114.032 164.72 114.472 165.033 114.792 165.42C115.112 165.807 115.332 166.24 115.452 166.72C115.585 167.2 115.652 167.68 115.652 168.16V174H113.412V172.78ZM113.372 169.62H112.832C112.445 169.62 112.038 169.64 111.612 169.68C111.185 169.707 110.792 169.78 110.432 169.9C110.072 170.007 109.772 170.167 109.532 170.38C109.292 170.58 109.172 170.86 109.172 171.22C109.172 171.447 109.218 171.64 109.312 171.8C109.418 171.947 109.552 172.067 109.712 172.16C109.872 172.253 110.052 172.32 110.252 172.36C110.452 172.4 110.652 172.42 110.852 172.42C111.678 172.42 112.305 172.2 112.732 171.76C113.158 171.32 113.372 170.72 113.372 169.96V169.62ZM116.873 166.32V164.4H118.553V161.62H120.913V164.4H123.313V166.32H120.913V170.78C120.913 171.207 120.986 171.56 121.133 171.84C121.293 172.12 121.639 172.26 122.173 172.26C122.333 172.26 122.506 172.247 122.692 172.22C122.879 172.18 123.046 172.127 123.193 172.06L123.273 173.94C123.059 174.02 122.806 174.08 122.513 174.12C122.219 174.173 121.939 174.2 121.673 174.2C121.033 174.2 120.513 174.113 120.113 173.94C119.713 173.753 119.393 173.507 119.153 173.2C118.926 172.88 118.766 172.52 118.673 172.12C118.593 171.707 118.553 171.267 118.553 170.8V166.32H116.873ZM124.489 169.16C124.489 168.4 124.623 167.713 124.889 167.1C125.169 166.473 125.543 165.94 126.009 165.5C126.476 165.06 127.029 164.72 127.669 164.48C128.309 164.24 128.989 164.12 129.709 164.12C130.429 164.12 131.109 164.24 131.749 164.48C132.389 164.72 132.943 165.06 133.409 165.5C133.876 165.94 134.243 166.473 134.509 167.1C134.789 167.713 134.929 168.4 134.929 169.16C134.929 169.92 134.789 170.613 134.509 171.24C134.243 171.867 133.876 172.407 133.409 172.86C132.943 173.3 132.389 173.647 131.749 173.9C131.109 174.153 130.429 174.28 129.709 174.28C128.989 174.28 128.309 174.153 127.669 173.9C127.029 173.647 126.476 173.3 126.009 172.86C125.543 172.407 125.169 171.867 124.889 171.24C124.623 170.613 124.489 169.92 124.489 169.16ZM126.929 169.16C126.929 169.533 126.983 169.907 127.089 170.28C127.209 170.653 127.383 170.987 127.609 171.28C127.836 171.573 128.123 171.813 128.469 172C128.816 172.187 129.229 172.28 129.709 172.28C130.189 172.28 130.603 172.187 130.949 172C131.296 171.813 131.583 171.573 131.809 171.28C132.036 170.987 132.203 170.653 132.309 170.28C132.429 169.907 132.489 169.533 132.489 169.16C132.489 168.787 132.429 168.42 132.309 168.06C132.203 167.687 132.036 167.353 131.809 167.06C131.583 166.767 131.296 166.533 130.949 166.36C130.603 166.173 130.189 166.08 129.709 166.08C129.229 166.08 128.816 166.173 128.469 166.36C128.123 166.533 127.836 166.767 127.609 167.06C127.383 167.353 127.209 167.687 127.089 168.06C126.983 168.42 126.929 168.787 126.929 169.16ZM137.256 164.4H139.556V166H139.596C139.863 165.44 140.236 164.987 140.716 164.64C141.196 164.293 141.756 164.12 142.396 164.12C142.49 164.12 142.59 164.127 142.696 164.14C142.803 164.14 142.896 164.153 142.976 164.18V166.38C142.816 166.34 142.676 166.313 142.556 166.3C142.45 166.287 142.343 166.28 142.236 166.28C141.69 166.28 141.25 166.38 140.916 166.58C140.583 166.78 140.323 167.02 140.136 167.3C139.95 167.58 139.823 167.867 139.756 168.16C139.69 168.453 139.656 168.687 139.656 168.86V174H137.256V164.4ZM149.802 166.96C149.588 166.68 149.295 166.44 148.922 166.24C148.548 166.027 148.142 165.92 147.702 165.92C147.315 165.92 146.962 166 146.642 166.16C146.322 166.32 146.162 166.587 146.162 166.96C146.162 167.333 146.335 167.6 146.682 167.76C147.042 167.907 147.562 168.06 148.242 168.22C148.602 168.3 148.962 168.407 149.322 168.54C149.695 168.673 150.028 168.853 150.322 169.08C150.628 169.293 150.875 169.567 151.062 169.9C151.248 170.22 151.342 170.613 151.342 171.08C151.342 171.667 151.228 172.167 151.002 172.58C150.788 172.98 150.495 173.307 150.122 173.56C149.762 173.813 149.335 173.993 148.842 174.1C148.362 174.22 147.862 174.28 147.342 174.28C146.595 174.28 145.868 174.147 145.162 173.88C144.455 173.6 143.868 173.207 143.402 172.7L144.982 171.22C145.248 171.567 145.595 171.853 146.022 172.08C146.448 172.307 146.922 172.42 147.442 172.42C147.615 172.42 147.788 172.4 147.962 172.36C148.148 172.32 148.315 172.26 148.462 172.18C148.622 172.087 148.748 171.967 148.842 171.82C148.935 171.673 148.982 171.493 148.982 171.28C148.982 170.88 148.795 170.593 148.422 170.42C148.062 170.247 147.515 170.073 146.782 169.9C146.422 169.82 146.068 169.72 145.722 169.6C145.388 169.467 145.088 169.3 144.822 169.1C144.555 168.887 144.342 168.627 144.182 168.32C144.022 168.013 143.942 167.633 143.942 167.18C143.942 166.647 144.048 166.187 144.262 165.8C144.488 165.413 144.782 165.1 145.142 164.86C145.502 164.607 145.908 164.42 146.362 164.3C146.815 164.18 147.282 164.12 147.762 164.12C148.455 164.12 149.128 164.24 149.782 164.48C150.448 164.72 150.975 165.087 151.362 165.58L149.802 166.96Z" fill="black"/>
<g filter="url(#filter0_d)">
<path d="M143.504 135.282C168.07 107.098 167.559 64.3143 141.272 36.6331C113.464 7.36654 67.0965 6.22351 37.8157 34.1482C9.57413 61.0889 7.54306 105.364 32.65 134.834L54.8133 113.698C41.2753 96.5378 42.7633 71.6421 58.8531 56.2982C75.9102 40.0274 102.937 40.6262 119.173 57.717C126.162 65.0564 130.317 74.6473 130.896 84.7748C131.476 94.9023 128.441 104.906 122.335 112.997L143.504 135.282Z" fill="#0A9ADA"/>
<path d="M84.7813 81.4865L97.4296 68.6781L122.726 93.9746L97.4296 119.271L84.7813 106.303L97.4296 93.9746L84.7813 81.4865Z" fill="#0A9ADA"/>
<path d="M95.6684 68.518L83.0201 56.1899L57.7236 81.4865L83.0201 106.143L95.6684 93.8145L83.0201 81.4865L95.6684 68.518Z" fill="#FFD602"/>
</g>
<defs>
<filter id="filter0_d" x="0.13623" y="0.922363" width="176.335" height="151.359" filterUnits="userSpaceOnUse" color-interpolation-filters="sRGB">
<feFlood flood-opacity="0" result="BackgroundImageFix"/>
<feColorMatrix in="SourceAlpha" type="matrix" values="0 0 0 0 0 0 0 0 0 0 0 0 0 0 0 0 0 0 127 0"/>
<feOffset dy="2"/>
<feGaussianBlur stdDeviation="7.5"/>
<feColorMatrix type="matrix" values="0 0 0 0 0 0 0 0 0 0 0 0 0 0 0 0 0 0 0.1 0"/>
<feBlend mode="normal" in2="BackgroundImageFix" result="effect1_dropShadow"/>
<feBlend mode="normal" in="SourceGraphic" in2="effect1_dropShadow" result="shape"/>
</filter>
</defs>
</svg>
