<svg width="177" height="181" viewBox="0 0 177 181" fill="none" xmlns="http://www.w3.org/2000/svg">
<rect x="3" y="3" width="170" height="170" rx="85" fill="white"/>
<path d="M37.7866 159.84H46.9266V162.04H40.3066V165.92H46.5466V168.04H40.3066V174H37.7866V159.84ZM47.6144 169.16C47.6144 168.4 47.7477 167.713 48.0144 167.1C48.2944 166.473 48.6677 165.94 49.1344 165.5C49.601 165.06 50.1544 164.72 50.7944 164.48C51.4344 164.24 52.1144 164.12 52.8344 164.12C53.5544 164.12 54.2344 164.24 54.8744 164.48C55.5144 164.72 56.0677 165.06 56.5344 165.5C57.001 165.94 57.3677 166.473 57.6344 167.1C57.9144 167.713 58.0544 168.4 58.0544 169.16C58.0544 169.92 57.9144 170.613 57.6344 171.24C57.3677 171.867 57.001 172.407 56.5344 172.86C56.0677 173.3 55.5144 173.647 54.8744 173.9C54.2344 174.153 53.5544 174.28 52.8344 174.28C52.1144 174.28 51.4344 174.153 50.7944 173.9C50.1544 173.647 49.601 173.3 49.1344 172.86C48.6677 172.407 48.2944 171.867 48.0144 171.24C47.7477 170.613 47.6144 169.92 47.6144 169.16ZM50.0544 169.16C50.0544 169.533 50.1077 169.907 50.2144 170.28C50.3344 170.653 50.5077 170.987 50.7344 171.28C50.961 171.573 51.2477 171.813 51.5944 172C51.941 172.187 52.3544 172.28 52.8344 172.28C53.3144 172.28 53.7277 172.187 54.0744 172C54.421 171.813 54.7077 171.573 54.9344 171.28C55.161 170.987 55.3277 170.653 55.4344 170.28C55.5544 169.907 55.6144 169.533 55.6144 169.16C55.6144 168.787 55.5544 168.42 55.4344 168.06C55.3277 167.687 55.161 167.353 54.9344 167.06C54.7077 166.767 54.421 166.533 54.0744 166.36C53.7277 166.173 53.3144 166.08 52.8344 166.08C52.3544 166.08 51.941 166.173 51.5944 166.36C51.2477 166.533 50.961 166.767 50.7344 167.06C50.5077 167.353 50.3344 167.687 50.2144 168.06C50.1077 168.42 50.0544 168.787 50.0544 169.16ZM60.3814 164.4H62.6814V166H62.7214C62.9881 165.44 63.3614 164.987 63.8414 164.64C64.3214 164.293 64.8814 164.12 65.5214 164.12C65.6147 164.12 65.7147 164.127 65.8214 164.14C65.9281 164.14 66.0214 164.153 66.1014 164.18V166.38C65.9414 166.34 65.8014 166.313 65.6814 166.3C65.5747 166.287 65.4681 166.28 65.3614 166.28C64.8147 166.28 64.3747 166.38 64.0414 166.58C63.7081 166.78 63.4481 167.02 63.2614 167.3C63.0747 167.58 62.9481 167.867 62.8814 168.16C62.8147 168.453 62.7814 168.687 62.7814 168.86V174H60.3814V164.4ZM66.3066 164.4H68.9066L70.9066 171.28H70.9466L73.0066 164.4H75.5666L77.6466 171.28H77.6866L79.7266 164.4H82.2266L78.9066 174H76.4666L74.2866 167.28H74.2466L72.0866 174H69.6466L66.3066 164.4ZM83.1808 169.16C83.1808 168.4 83.3141 167.713 83.5808 167.1C83.8608 166.473 84.2341 165.94 84.7008 165.5C85.1674 165.06 85.7208 164.72 86.3608 164.48C87.0008 164.24 87.6808 164.12 88.4008 164.12C89.1208 164.12 89.8008 164.24 90.4408 164.48C91.0808 164.72 91.6341 165.06 92.1008 165.5C92.5674 165.94 92.9341 166.473 93.2008 167.1C93.4808 167.713 93.6208 168.4 93.6208 169.16C93.6208 169.92 93.4808 170.613 93.2008 171.24C92.9341 171.867 92.5674 172.407 92.1008 172.86C91.6341 173.3 91.0808 173.647 90.4408 173.9C89.8008 174.153 89.1208 174.28 88.4008 174.28C87.6808 174.28 87.0008 174.153 86.3608 173.9C85.7208 173.647 85.1674 173.3 84.7008 172.86C84.2341 172.407 83.8608 171.867 83.5808 171.24C83.3141 170.613 83.1808 169.92 83.1808 169.16ZM85.6208 169.16C85.6208 169.533 85.6741 169.907 85.7808 170.28C85.9008 170.653 86.0741 170.987 86.3008 171.28C86.5274 171.573 86.8141 171.813 87.1608 172C87.5074 172.187 87.9208 172.28 88.4008 172.28C88.8808 172.28 89.2941 172.187 89.6408 172C89.9874 171.813 90.2741 171.573 90.5008 171.28C90.7274 170.987 90.8941 170.653 91.0008 170.28C91.1208 169.907 91.1808 169.533 91.1808 169.16C91.1808 168.787 91.1208 168.42 91.0008 168.06C90.8941 167.687 90.7274 167.353 90.5008 167.06C90.2741 166.767 89.9874 166.533 89.6408 166.36C89.2941 166.173 88.8808 166.08 88.4008 166.08C87.9208 166.08 87.5074 166.173 87.1608 166.36C86.8141 166.533 86.5274 166.767 86.3008 167.06C86.0741 167.353 85.9008 167.687 85.7808 168.06C85.6741 168.42 85.6208 168.787 85.6208 169.16ZM95.9478 164.4H98.2478V166H98.2878C98.5545 165.44 98.9278 164.987 99.4078 164.64C99.8878 164.293 100.448 164.12 101.088 164.12C101.181 164.12 101.281 164.127 101.388 164.14C101.494 164.14 101.588 164.153 101.668 164.18V166.38C101.508 166.34 101.368 166.313 101.248 166.3C101.141 166.287 101.034 166.28 100.928 166.28C100.381 166.28 99.9411 166.38 99.6078 166.58C99.2745 166.78 99.0145 167.02 98.8278 167.3C98.6411 167.58 98.5145 167.867 98.4478 168.16C98.3811 168.453 98.3478 168.687 98.3478 168.86V174H95.9478V164.4ZM112.641 174H110.361V172.56H110.321C109.988 173.12 109.521 173.547 108.921 173.84C108.335 174.133 107.701 174.28 107.021 174.28C106.288 174.28 105.628 174.147 105.041 173.88C104.468 173.6 103.975 173.233 103.561 172.78C103.161 172.313 102.848 171.773 102.621 171.16C102.408 170.533 102.301 169.867 102.301 169.16C102.301 168.453 102.415 167.793 102.641 167.18C102.868 166.567 103.188 166.033 103.601 165.58C104.015 165.127 104.508 164.773 105.081 164.52C105.655 164.253 106.281 164.12 106.961 164.12C107.401 164.12 107.795 164.173 108.141 164.28C108.488 164.373 108.788 164.493 109.041 164.64C109.308 164.787 109.535 164.947 109.721 165.12C109.908 165.293 110.061 165.46 110.181 165.62H110.241V158.88H112.641V174ZM104.741 169.16C104.741 169.533 104.795 169.907 104.901 170.28C105.021 170.653 105.195 170.987 105.421 171.28C105.648 171.573 105.935 171.813 106.281 172C106.628 172.187 107.035 172.28 107.501 172.28C107.941 172.28 108.335 172.193 108.681 172.02C109.028 171.833 109.321 171.593 109.561 171.3C109.815 171.007 110.001 170.68 110.121 170.32C110.255 169.947 110.321 169.573 110.321 169.2C110.321 168.827 110.255 168.453 110.121 168.08C110.001 167.707 109.815 167.373 109.561 167.08C109.321 166.787 109.028 166.547 108.681 166.36C108.335 166.173 107.941 166.08 107.501 166.08C107.035 166.08 106.628 166.173 106.281 166.36C105.935 166.533 105.648 166.767 105.421 167.06C105.195 167.353 105.021 167.687 104.901 168.06C104.795 168.42 104.741 168.787 104.741 169.16ZM122.317 168.24C122.317 167.933 122.271 167.64 122.177 167.36C122.097 167.08 121.964 166.833 121.777 166.62C121.591 166.407 121.351 166.24 121.057 166.12C120.777 165.987 120.444 165.92 120.057 165.92C119.337 165.92 118.724 166.14 118.217 166.58C117.724 167.007 117.451 167.56 117.397 168.24H122.317ZM124.717 169.32C124.717 169.427 124.717 169.533 124.717 169.64C124.717 169.747 124.711 169.853 124.697 169.96H117.397C117.424 170.307 117.511 170.627 117.657 170.92C117.817 171.2 118.024 171.447 118.277 171.66C118.531 171.86 118.817 172.02 119.137 172.14C119.457 172.26 119.791 172.32 120.137 172.32C120.737 172.32 121.244 172.213 121.657 172C122.071 171.773 122.411 171.467 122.677 171.08L124.277 172.36C123.331 173.64 121.957 174.28 120.157 174.28C119.411 174.28 118.724 174.167 118.097 173.94C117.471 173.7 116.924 173.367 116.457 172.94C116.004 172.513 115.644 171.993 115.377 171.38C115.124 170.753 114.997 170.047 114.997 169.26C114.997 168.487 115.124 167.787 115.377 167.16C115.644 166.52 116.004 165.98 116.457 165.54C116.911 165.087 117.444 164.74 118.057 164.5C118.684 164.247 119.357 164.12 120.077 164.12C120.744 164.12 121.357 164.233 121.917 164.46C122.491 164.673 122.984 165 123.397 165.44C123.811 165.867 124.131 166.407 124.357 167.06C124.597 167.7 124.717 168.453 124.717 169.32ZM127.042 164.4H129.342V166H129.382C129.648 165.44 130.022 164.987 130.502 164.64C130.982 164.293 131.542 164.12 132.182 164.12C132.275 164.12 132.375 164.127 132.482 164.14C132.588 164.14 132.682 164.153 132.762 164.18V166.38C132.602 166.34 132.462 166.313 132.342 166.3C132.235 166.287 132.128 166.28 132.022 166.28C131.475 166.28 131.035 166.38 130.702 166.58C130.368 166.78 130.108 167.02 129.922 167.3C129.735 167.58 129.608 167.867 129.542 168.16C129.475 168.453 129.442 168.687 129.442 168.86V174H127.042V164.4ZM139.587 166.96C139.373 166.68 139.08 166.44 138.707 166.24C138.333 166.027 137.927 165.92 137.487 165.92C137.1 165.92 136.747 166 136.427 166.16C136.107 166.32 135.947 166.587 135.947 166.96C135.947 167.333 136.12 167.6 136.467 167.76C136.827 167.907 137.347 168.06 138.027 168.22C138.387 168.3 138.747 168.407 139.107 168.54C139.48 168.673 139.813 168.853 140.107 169.08C140.413 169.293 140.66 169.567 140.847 169.9C141.033 170.22 141.127 170.613 141.127 171.08C141.127 171.667 141.013 172.167 140.787 172.58C140.573 172.98 140.28 173.307 139.907 173.56C139.547 173.813 139.12 173.993 138.627 174.1C138.147 174.22 137.647 174.28 137.127 174.28C136.38 174.28 135.653 174.147 134.947 173.88C134.24 173.6 133.653 173.207 133.187 172.7L134.767 171.22C135.033 171.567 135.38 171.853 135.807 172.08C136.233 172.307 136.707 172.42 137.227 172.42C137.4 172.42 137.573 172.4 137.747 172.36C137.933 172.32 138.1 172.26 138.247 172.18C138.407 172.087 138.533 171.967 138.627 171.82C138.72 171.673 138.767 171.493 138.767 171.28C138.767 170.88 138.58 170.593 138.207 170.42C137.847 170.247 137.3 170.073 136.567 169.9C136.207 169.82 135.853 169.72 135.507 169.6C135.173 169.467 134.873 169.3 134.607 169.1C134.34 168.887 134.127 168.627 133.967 168.32C133.807 168.013 133.727 167.633 133.727 167.18C133.727 166.647 133.833 166.187 134.047 165.8C134.273 165.413 134.567 165.1 134.927 164.86C135.287 164.607 135.693 164.42 136.147 164.3C136.6 164.18 137.067 164.12 137.547 164.12C138.24 164.12 138.913 164.24 139.567 164.48C140.233 164.72 140.76 165.087 141.147 165.58L139.587 166.96Z" fill="black"/>
<g filter="url(#filter0_d)">
<path d="M143.445 135.282C168.011 107.098 167.501 64.3143 141.213 36.6331C113.405 7.36654 67.0379 6.22351 37.7572 34.1482C9.51553 61.0889 7.48446 105.364 32.5914 134.834L54.7547 113.698C41.2167 96.5378 42.7047 71.6421 58.7946 56.2982C75.8516 40.0274 102.878 40.6262 119.114 57.717C126.103 65.0564 130.258 74.6473 130.838 84.7748C131.417 94.9023 128.382 104.906 122.276 112.997L143.445 135.282Z" fill="#0A9ADA"/>
<path d="M85.6837 74.4418L98.3319 61.6335L123.628 86.93L98.3319 112.227L85.6837 99.258L98.3319 86.93L85.6837 74.4418Z" fill="#0A9ADA"/>
<path d="M57.6656 74.4418L70.3138 61.6335L95.6104 86.93L70.3138 112.227L57.6656 99.258L70.3138 86.93L57.6656 74.4418Z" fill="#FCB53B"/>
</g>
<defs>
<filter id="filter0_d" x="0.0776367" y="0.922363" width="176.335" height="151.359" filterUnits="userSpaceOnUse" color-interpolation-filters="sRGB">
<feFlood flood-opacity="0" result="BackgroundImageFix"/>
<feColorMatrix in="SourceAlpha" type="matrix" values="0 0 0 0 0 0 0 0 0 0 0 0 0 0 0 0 0 0 127 0"/>
<feOffset dy="2"/>
<feGaussianBlur stdDeviation="7.5"/>
<feColorMatrix type="matrix" values="0 0 0 0 0 0 0 0 0 0 0 0 0 0 0 0 0 0 0.1 0"/>
<feBlend mode="normal" in2="BackgroundImageFix" result="effect1_dropShadow"/>
<feBlend mode="normal" in="SourceGraphic" in2="effect1_dropShadow" result="shape"/>
</filter>
</defs>
</svg>
