<svg width="202" height="181" viewBox="0 0 202 181" fill="none" xmlns="http://www.w3.org/2000/svg">
<rect x="15" y="3" width="170" height="170" rx="85" fill="white"/>
<path d="M1.61273 159.84H4.13273V174H1.61273V159.84ZM18.5973 164.12C19.2239 164.12 19.7573 164.233 20.1973 164.46C20.6506 164.673 21.0173 164.96 21.2973 165.32C21.5906 165.68 21.8039 166.093 21.9373 166.56C22.0706 167.027 22.1373 167.507 22.1373 168V174H19.7373V168.68C19.7373 168.4 19.7173 168.107 19.6773 167.8C19.6373 167.493 19.5506 167.22 19.4173 166.98C19.2839 166.727 19.0973 166.52 18.8573 166.36C18.6306 166.2 18.3239 166.12 17.9373 166.12C17.5639 166.12 17.2439 166.2 16.9773 166.36C16.7106 166.52 16.4906 166.727 16.3173 166.98C16.1439 167.233 16.0173 167.52 15.9373 167.84C15.8573 168.147 15.8173 168.453 15.8173 168.76V174H13.4173V168.2C13.4173 167.6 13.2706 167.107 12.9773 166.72C12.6973 166.32 12.2506 166.12 11.6373 166.12C11.2773 166.12 10.9639 166.2 10.6973 166.36C10.4306 166.507 10.2106 166.7 10.0373 166.94C9.87727 167.18 9.7506 167.46 9.65727 167.78C9.57727 168.087 9.53727 168.4 9.53727 168.72V174H7.13727V164.4H9.41727V165.94H9.45727C9.56393 165.7 9.70393 165.473 9.87727 165.26C10.0639 165.047 10.2773 164.853 10.5173 164.68C10.7706 164.507 11.0573 164.373 11.3773 164.28C11.6973 164.173 12.0506 164.12 12.4373 164.12C13.1839 164.12 13.8039 164.287 14.2973 164.62C14.7906 164.953 15.1706 165.393 15.4373 165.94C15.7573 165.353 16.1839 164.907 16.7173 164.6C17.2506 164.28 17.8773 164.12 18.5973 164.12ZM27.2302 164.4V165.74H27.2902C27.4102 165.553 27.5636 165.367 27.7502 165.18C27.9502 164.98 28.1902 164.807 28.4702 164.66C28.7502 164.5 29.0636 164.373 29.4102 164.28C29.7702 164.173 30.1702 164.12 30.6102 164.12C31.2902 164.12 31.9169 164.253 32.4902 164.52C33.0636 164.773 33.5569 165.127 33.9702 165.58C34.3836 166.033 34.7036 166.567 34.9302 167.18C35.1569 167.793 35.2702 168.453 35.2702 169.16C35.2702 169.867 35.1569 170.533 34.9302 171.16C34.7169 171.773 34.4036 172.313 33.9902 172.78C33.5902 173.233 33.0969 173.6 32.5102 173.88C31.9369 174.147 31.2836 174.28 30.5502 174.28C29.8702 174.28 29.2436 174.14 28.6702 173.86C28.1102 173.58 27.6769 173.2 27.3702 172.72H27.3302V178.8H24.9302V164.4H27.2302ZM32.8302 169.16C32.8302 168.787 32.7702 168.42 32.6502 168.06C32.5436 167.687 32.3769 167.353 32.1502 167.06C31.9236 166.767 31.6369 166.533 31.2902 166.36C30.9436 166.173 30.5369 166.08 30.0702 166.08C29.6302 166.08 29.2369 166.173 28.8902 166.36C28.5436 166.547 28.2436 166.787 27.9902 167.08C27.7502 167.373 27.5636 167.707 27.4302 168.08C27.3102 168.453 27.2502 168.827 27.2502 169.2C27.2502 169.573 27.3102 169.947 27.4302 170.32C27.5636 170.68 27.7502 171.007 27.9902 171.3C28.2436 171.593 28.5436 171.833 28.8902 172.02C29.2369 172.193 29.6302 172.28 30.0702 172.28C30.5369 172.28 30.9436 172.187 31.2902 172C31.6369 171.813 31.9236 171.573 32.1502 171.28C32.3769 170.987 32.5436 170.653 32.6502 170.28C32.7702 169.907 32.8302 169.533 32.8302 169.16ZM37.0265 169.16C37.0265 168.4 37.1598 167.713 37.4265 167.1C37.7065 166.473 38.0798 165.94 38.5465 165.5C39.0132 165.06 39.5665 164.72 40.2065 164.48C40.8465 164.24 41.5265 164.12 42.2465 164.12C42.9665 164.12 43.6465 164.24 44.2865 164.48C44.9265 164.72 45.4798 165.06 45.9465 165.5C46.4132 165.94 46.7798 166.473 47.0465 167.1C47.3265 167.713 47.4665 168.4 47.4665 169.16C47.4665 169.92 47.3265 170.613 47.0465 171.24C46.7798 171.867 46.4132 172.407 45.9465 172.86C45.4798 173.3 44.9265 173.647 44.2865 173.9C43.6465 174.153 42.9665 174.28 42.2465 174.28C41.5265 174.28 40.8465 174.153 40.2065 173.9C39.5665 173.647 39.0132 173.3 38.5465 172.86C38.0798 172.407 37.7065 171.867 37.4265 171.24C37.1598 170.613 37.0265 169.92 37.0265 169.16ZM39.4665 169.16C39.4665 169.533 39.5198 169.907 39.6265 170.28C39.7465 170.653 39.9198 170.987 40.1465 171.28C40.3732 171.573 40.6598 171.813 41.0065 172C41.3532 172.187 41.7665 172.28 42.2465 172.28C42.7265 172.28 43.1398 172.187 43.4865 172C43.8332 171.813 44.1198 171.573 44.3465 171.28C44.5732 170.987 44.7398 170.653 44.8465 170.28C44.9665 169.907 45.0265 169.533 45.0265 169.16C45.0265 168.787 44.9665 168.42 44.8465 168.06C44.7398 167.687 44.5732 167.353 44.3465 167.06C44.1198 166.767 43.8332 166.533 43.4865 166.36C43.1398 166.173 42.7265 166.08 42.2465 166.08C41.7665 166.08 41.3532 166.173 41.0065 166.36C40.6598 166.533 40.3732 166.767 40.1465 167.06C39.9198 167.353 39.7465 167.687 39.6265 168.06C39.5198 168.42 39.4665 168.787 39.4665 169.16ZM49.7935 164.4H52.0935V166H52.1335C52.4002 165.44 52.7735 164.987 53.2535 164.64C53.7335 164.293 54.2935 164.12 54.9335 164.12C55.0268 164.12 55.1268 164.127 55.2335 164.14C55.3402 164.14 55.4335 164.153 55.5135 164.18V166.38C55.3535 166.34 55.2135 166.313 55.0935 166.3C54.9868 166.287 54.8802 166.28 54.7735 166.28C54.2268 166.28 53.7868 166.38 53.4535 166.58C53.1202 166.78 52.8602 167.02 52.6735 167.3C52.4868 167.58 52.3602 167.867 52.2935 168.16C52.2268 168.453 52.1935 168.687 52.1935 168.86V174H49.7935V164.4ZM55.4643 166.32V164.4H57.1443V161.62H59.5043V164.4H61.9043V166.32H59.5043V170.78C59.5043 171.207 59.5776 171.56 59.7243 171.84C59.8843 172.12 60.231 172.26 60.7643 172.26C60.9243 172.26 61.0976 172.247 61.2843 172.22C61.471 172.18 61.6376 172.127 61.7843 172.06L61.8643 173.94C61.651 174.02 61.3976 174.08 61.1043 174.12C60.811 174.173 60.531 174.2 60.2643 174.2C59.6243 174.2 59.1043 174.113 58.7043 173.94C58.3043 173.753 57.9843 173.507 57.7443 173.2C57.5176 172.88 57.3576 172.52 57.2643 172.12C57.1843 171.707 57.1443 171.267 57.1443 170.8V166.32H55.4643ZM70.4012 168.24C70.4012 167.933 70.3545 167.64 70.2612 167.36C70.1812 167.08 70.0478 166.833 69.8612 166.62C69.6745 166.407 69.4345 166.24 69.1412 166.12C68.8612 165.987 68.5278 165.92 68.1412 165.92C67.4212 165.92 66.8078 166.14 66.3012 166.58C65.8078 167.007 65.5345 167.56 65.4812 168.24H70.4012ZM72.8012 169.32C72.8012 169.427 72.8012 169.533 72.8012 169.64C72.8012 169.747 72.7945 169.853 72.7812 169.96H65.4812C65.5078 170.307 65.5945 170.627 65.7412 170.92C65.9012 171.2 66.1078 171.447 66.3612 171.66C66.6145 171.86 66.9012 172.02 67.2212 172.14C67.5412 172.26 67.8745 172.32 68.2212 172.32C68.8212 172.32 69.3278 172.213 69.7412 172C70.1545 171.773 70.4945 171.467 70.7612 171.08L72.3612 172.36C71.4145 173.64 70.0412 174.28 68.2412 174.28C67.4945 174.28 66.8078 174.167 66.1812 173.94C65.5545 173.7 65.0078 173.367 64.5412 172.94C64.0878 172.513 63.7278 171.993 63.4612 171.38C63.2078 170.753 63.0812 170.047 63.0812 169.26C63.0812 168.487 63.2078 167.787 63.4612 167.16C63.7278 166.52 64.0878 165.98 64.5412 165.54C64.9945 165.087 65.5278 164.74 66.1412 164.5C66.7678 164.247 67.4412 164.12 68.1612 164.12C68.8278 164.12 69.4412 164.233 70.0012 164.46C70.5745 164.673 71.0678 165 71.4812 165.44C71.8945 165.867 72.2145 166.407 72.4412 167.06C72.6812 167.7 72.8012 168.453 72.8012 169.32ZM75.1255 164.4H77.4255V166H77.4655C77.7322 165.44 78.1055 164.987 78.5855 164.64C79.0655 164.293 79.6255 164.12 80.2655 164.12C80.3589 164.12 80.4589 164.127 80.5655 164.14C80.6722 164.14 80.7655 164.153 80.8455 164.18V166.38C80.6855 166.34 80.5455 166.313 80.4255 166.3C80.3189 166.287 80.2122 166.28 80.1055 166.28C79.5589 166.28 79.1189 166.38 78.7855 166.58C78.4522 166.78 78.1922 167.02 78.0055 167.3C77.8189 167.58 77.6922 167.867 77.6255 168.16C77.5589 168.453 77.5255 168.687 77.5255 168.86V174H75.1255V164.4ZM87.6707 166.96C87.4574 166.68 87.164 166.44 86.7907 166.24C86.4174 166.027 86.0107 165.92 85.5707 165.92C85.184 165.92 84.8307 166 84.5107 166.16C84.1907 166.32 84.0307 166.587 84.0307 166.96C84.0307 167.333 84.204 167.6 84.5507 167.76C84.9107 167.907 85.4307 168.06 86.1107 168.22C86.4707 168.3 86.8307 168.407 87.1907 168.54C87.564 168.673 87.8974 168.853 88.1907 169.08C88.4974 169.293 88.744 169.567 88.9307 169.9C89.1174 170.22 89.2107 170.613 89.2107 171.08C89.2107 171.667 89.0974 172.167 88.8707 172.58C88.6574 172.98 88.364 173.307 87.9907 173.56C87.6307 173.813 87.204 173.993 86.7107 174.1C86.2307 174.22 85.7307 174.28 85.2107 174.28C84.464 174.28 83.7374 174.147 83.0307 173.88C82.324 173.6 81.7374 173.207 81.2707 172.7L82.8507 171.22C83.1174 171.567 83.464 171.853 83.8907 172.08C84.3174 172.307 84.7907 172.42 85.3107 172.42C85.484 172.42 85.6574 172.4 85.8307 172.36C86.0174 172.32 86.184 172.26 86.3307 172.18C86.4907 172.087 86.6174 171.967 86.7107 171.82C86.804 171.673 86.8507 171.493 86.8507 171.28C86.8507 170.88 86.664 170.593 86.2907 170.42C85.9307 170.247 85.384 170.073 84.6507 169.9C84.2907 169.82 83.9374 169.72 83.5907 169.6C83.2574 169.467 82.9574 169.3 82.6907 169.1C82.424 168.887 82.2107 168.627 82.0507 168.32C81.8907 168.013 81.8107 167.633 81.8107 167.18C81.8107 166.647 81.9174 166.187 82.1307 165.8C82.3574 165.413 82.6507 165.1 83.0107 164.86C83.3707 164.607 83.7774 164.42 84.2307 164.3C84.684 164.18 85.1507 164.12 85.6307 164.12C86.324 164.12 86.9974 164.24 87.6507 164.48C88.3174 164.72 88.844 165.087 89.2307 165.58L87.6707 166.96ZM101.337 174.96L99.6774 174.36L105.917 158.84L107.577 159.48L101.337 174.96ZM114.191 159.84H123.571V162.04H116.711V165.64H123.211V167.76H116.711V171.76H123.931V174H114.191V159.84ZM128.718 168.9L125.258 164.4H128.138L130.218 167.38L132.358 164.4H135.118L131.678 168.9L135.598 174H132.678L130.178 170.5L127.658 174H124.818L128.718 168.9ZM139.32 164.4V165.74H139.38C139.5 165.553 139.653 165.367 139.84 165.18C140.04 164.98 140.28 164.807 140.56 164.66C140.84 164.5 141.153 164.373 141.5 164.28C141.86 164.173 142.26 164.12 142.7 164.12C143.38 164.12 144.007 164.253 144.58 164.52C145.153 164.773 145.647 165.127 146.06 165.58C146.473 166.033 146.793 166.567 147.02 167.18C147.247 167.793 147.36 168.453 147.36 169.16C147.36 169.867 147.247 170.533 147.02 171.16C146.807 171.773 146.493 172.313 146.08 172.78C145.68 173.233 145.187 173.6 144.6 173.88C144.027 174.147 143.373 174.28 142.64 174.28C141.96 174.28 141.333 174.14 140.76 173.86C140.2 173.58 139.767 173.2 139.46 172.72H139.42V178.8H137.02V164.4H139.32ZM144.92 169.16C144.92 168.787 144.86 168.42 144.74 168.06C144.633 167.687 144.467 167.353 144.24 167.06C144.013 166.767 143.727 166.533 143.38 166.36C143.033 166.173 142.627 166.08 142.16 166.08C141.72 166.08 141.327 166.173 140.98 166.36C140.633 166.547 140.333 166.787 140.08 167.08C139.84 167.373 139.653 167.707 139.52 168.08C139.4 168.453 139.34 168.827 139.34 169.2C139.34 169.573 139.4 169.947 139.52 170.32C139.653 170.68 139.84 171.007 140.08 171.3C140.333 171.593 140.633 171.833 140.98 172.02C141.327 172.193 141.72 172.28 142.16 172.28C142.627 172.28 143.033 172.187 143.38 172C143.727 171.813 144.013 171.573 144.24 171.28C144.467 170.987 144.633 170.653 144.74 170.28C144.86 169.907 144.92 169.533 144.92 169.16ZM149.116 169.16C149.116 168.4 149.25 167.713 149.516 167.1C149.796 166.473 150.17 165.94 150.636 165.5C151.103 165.06 151.656 164.72 152.296 164.48C152.936 164.24 153.616 164.12 154.336 164.12C155.056 164.12 155.736 164.24 156.376 164.48C157.016 164.72 157.57 165.06 158.036 165.5C158.503 165.94 158.87 166.473 159.136 167.1C159.416 167.713 159.556 168.4 159.556 169.16C159.556 169.92 159.416 170.613 159.136 171.24C158.87 171.867 158.503 172.407 158.036 172.86C157.57 173.3 157.016 173.647 156.376 173.9C155.736 174.153 155.056 174.28 154.336 174.28C153.616 174.28 152.936 174.153 152.296 173.9C151.656 173.647 151.103 173.3 150.636 172.86C150.17 172.407 149.796 171.867 149.516 171.24C149.25 170.613 149.116 169.92 149.116 169.16ZM151.556 169.16C151.556 169.533 151.61 169.907 151.716 170.28C151.836 170.653 152.01 170.987 152.236 171.28C152.463 171.573 152.75 171.813 153.096 172C153.443 172.187 153.856 172.28 154.336 172.28C154.816 172.28 155.23 172.187 155.576 172C155.923 171.813 156.21 171.573 156.436 171.28C156.663 170.987 156.83 170.653 156.936 170.28C157.056 169.907 157.116 169.533 157.116 169.16C157.116 168.787 157.056 168.42 156.936 168.06C156.83 167.687 156.663 167.353 156.436 167.06C156.21 166.767 155.923 166.533 155.576 166.36C155.23 166.173 154.816 166.08 154.336 166.08C153.856 166.08 153.443 166.173 153.096 166.36C152.75 166.533 152.463 166.767 152.236 167.06C152.01 167.353 151.836 167.687 151.716 168.06C151.61 168.42 151.556 168.787 151.556 169.16ZM161.883 164.4H164.183V166H164.223C164.49 165.44 164.863 164.987 165.343 164.64C165.823 164.293 166.383 164.12 167.023 164.12C167.117 164.12 167.217 164.127 167.323 164.14C167.43 164.14 167.523 164.153 167.603 164.18V166.38C167.443 166.34 167.303 166.313 167.183 166.3C167.077 166.287 166.97 166.28 166.863 166.28C166.317 166.28 165.877 166.38 165.543 166.58C165.21 166.78 164.95 167.02 164.763 167.3C164.577 167.58 164.45 167.867 164.383 168.16C164.317 168.453 164.283 168.687 164.283 168.86V174H161.883V164.4ZM167.554 166.32V164.4H169.234V161.62H171.594V164.4H173.994V166.32H171.594V170.78C171.594 171.207 171.667 171.56 171.814 171.84C171.974 172.12 172.321 172.26 172.854 172.26C173.014 172.26 173.187 172.247 173.374 172.22C173.561 172.18 173.727 172.127 173.874 172.06L173.954 173.94C173.741 174.02 173.487 174.08 173.194 174.12C172.901 174.173 172.621 174.2 172.354 174.2C171.714 174.2 171.194 174.113 170.794 173.94C170.394 173.753 170.074 173.507 169.834 173.2C169.607 172.88 169.447 172.52 169.354 172.12C169.274 171.707 169.234 171.267 169.234 170.8V166.32H167.554ZM182.491 168.24C182.491 167.933 182.444 167.64 182.351 167.36C182.271 167.08 182.138 166.833 181.951 166.62C181.764 166.407 181.524 166.24 181.231 166.12C180.951 165.987 180.618 165.92 180.231 165.92C179.511 165.92 178.898 166.14 178.391 166.58C177.898 167.007 177.624 167.56 177.571 168.24H182.491ZM184.891 169.32C184.891 169.427 184.891 169.533 184.891 169.64C184.891 169.747 184.884 169.853 184.871 169.96H177.571C177.598 170.307 177.684 170.627 177.831 170.92C177.991 171.2 178.198 171.447 178.451 171.66C178.704 171.86 178.991 172.02 179.311 172.14C179.631 172.26 179.964 172.32 180.311 172.32C180.911 172.32 181.418 172.213 181.831 172C182.244 171.773 182.584 171.467 182.851 171.08L184.451 172.36C183.504 173.64 182.131 174.28 180.331 174.28C179.584 174.28 178.898 174.167 178.271 173.94C177.644 173.7 177.098 173.367 176.631 172.94C176.178 172.513 175.818 171.993 175.551 171.38C175.298 170.753 175.171 170.047 175.171 169.26C175.171 168.487 175.298 167.787 175.551 167.16C175.818 166.52 176.178 165.98 176.631 165.54C177.084 165.087 177.618 164.74 178.231 164.5C178.858 164.247 179.531 164.12 180.251 164.12C180.918 164.12 181.531 164.233 182.091 164.46C182.664 164.673 183.158 165 183.571 165.44C183.984 165.867 184.304 166.407 184.531 167.06C184.771 167.7 184.891 168.453 184.891 169.32ZM187.215 164.4H189.515V166H189.555C189.822 165.44 190.195 164.987 190.675 164.64C191.155 164.293 191.715 164.12 192.355 164.12C192.449 164.12 192.549 164.127 192.655 164.14C192.762 164.14 192.855 164.153 192.935 164.18V166.38C192.775 166.34 192.635 166.313 192.515 166.3C192.409 166.287 192.302 166.28 192.195 166.28C191.649 166.28 191.209 166.38 190.875 166.58C190.542 166.78 190.282 167.02 190.095 167.3C189.909 167.58 189.782 167.867 189.715 168.16C189.649 168.453 189.615 168.687 189.615 168.86V174H187.215V164.4ZM199.761 166.96C199.547 166.68 199.254 166.44 198.881 166.24C198.507 166.027 198.101 165.92 197.661 165.92C197.274 165.92 196.921 166 196.601 166.16C196.281 166.32 196.121 166.587 196.121 166.96C196.121 167.333 196.294 167.6 196.641 167.76C197.001 167.907 197.521 168.06 198.201 168.22C198.561 168.3 198.921 168.407 199.281 168.54C199.654 168.673 199.987 168.853 200.281 169.08C200.587 169.293 200.834 169.567 201.021 169.9C201.207 170.22 201.301 170.613 201.301 171.08C201.301 171.667 201.187 172.167 200.961 172.58C200.747 172.98 200.454 173.307 200.081 173.56C199.721 173.813 199.294 173.993 198.801 174.1C198.321 174.22 197.821 174.28 197.301 174.28C196.554 174.28 195.827 174.147 195.121 173.88C194.414 173.6 193.827 173.207 193.361 172.7L194.941 171.22C195.207 171.567 195.554 171.853 195.981 172.08C196.407 172.307 196.881 172.42 197.401 172.42C197.574 172.42 197.747 172.4 197.921 172.36C198.107 172.32 198.274 172.26 198.421 172.18C198.581 172.087 198.707 171.967 198.801 171.82C198.894 171.673 198.941 171.493 198.941 171.28C198.941 170.88 198.754 170.593 198.381 170.42C198.021 170.247 197.474 170.073 196.741 169.9C196.381 169.82 196.027 169.72 195.681 169.6C195.347 169.467 195.047 169.3 194.781 169.1C194.514 168.887 194.301 168.627 194.141 168.32C193.981 168.013 193.901 167.633 193.901 167.18C193.901 166.647 194.007 166.187 194.221 165.8C194.447 165.413 194.741 165.1 195.101 164.86C195.461 164.607 195.867 164.42 196.321 164.3C196.774 164.18 197.241 164.12 197.721 164.12C198.414 164.12 199.087 164.24 199.741 164.48C200.407 164.72 200.934 165.087 201.321 165.58L199.761 166.96Z" fill="black"/>
<g filter="url(#filter0_d)">
<path d="M155.601 135.282C180.167 107.098 179.656 64.3143 153.369 36.6331C125.561 7.36654 79.1936 6.22351 49.9129 34.1482C21.6713 61.0889 19.6402 105.364 44.7472 134.834L66.9105 113.698C53.3724 96.5378 54.8604 71.6421 70.9503 56.2982C88.0074 40.0274 115.034 40.6262 131.27 57.717C138.259 65.0564 142.414 74.6473 142.993 84.7748C143.573 94.9023 140.538 104.906 134.432 112.997L155.601 135.282Z" fill="#0A9ADA"/>
<path d="M88.8733 92.6938L76.0649 80.0455L101.361 54.749L126.658 80.0455L113.689 92.6938L101.361 80.0455L88.8733 92.6938Z" fill="#0A9ADA"/>
<path d="M88.8733 95L76.0649 107.648L101.361 132.945L126.658 107.648L113.689 95L101.361 107.648L88.8733 95Z" fill="#F57F29"/>
</g>
<defs>
<filter id="filter0_d" x="12.2334" y="0.922363" width="176.335" height="151.359" filterUnits="userSpaceOnUse" color-interpolation-filters="sRGB">
<feFlood flood-opacity="0" result="BackgroundImageFix"/>
<feColorMatrix in="SourceAlpha" type="matrix" values="0 0 0 0 0 0 0 0 0 0 0 0 0 0 0 0 0 0 127 0"/>
<feOffset dy="2"/>
<feGaussianBlur stdDeviation="7.5"/>
<feColorMatrix type="matrix" values="0 0 0 0 0 0 0 0 0 0 0 0 0 0 0 0 0 0 0.1 0"/>
<feBlend mode="normal" in2="BackgroundImageFix" result="effect1_dropShadow"/>
<feBlend mode="normal" in="SourceGraphic" in2="effect1_dropShadow" result="shape"/>
</filter>
</defs>
</svg>
