<svg width="182" height="32" viewBox="0 0 182 32" fill="none" xmlns="http://www.w3.org/2000/svg">
<path d="M122.136 4.12996C122.143 3.58928 122.041 3.05267 121.836 2.55245C121.631 2.05223 121.326 1.59876 120.941 1.21935C120.557 0.832959 120.101 0.526285 119.599 0.317012C119.096 0.10774 118.557 0 118.013 0C117.468 0 116.929 0.10774 116.427 0.317012C115.924 0.526285 115.468 0.832959 115.084 1.21935C114.602 1.70042 114.247 2.29301 114.049 2.94452C113.851 3.59603 113.817 4.28629 113.951 4.95403C114.084 5.62177 114.38 6.24631 114.812 6.77222C115.244 7.29813 115.8 7.70913 116.429 7.96873C117.059 8.22833 117.743 8.32849 118.42 8.26033C119.098 8.19218 119.748 7.95782 120.313 7.57804C120.878 7.19826 121.34 6.68482 121.66 6.08331C121.979 5.4818 122.144 4.81082 122.141 4.12996H122.136ZM166.964 31.2609V9.51806H175.3L175.337 10.9444C175.897 10.4213 176.573 10.0375 177.309 9.82425C178.104 9.63111 178.918 9.53023 179.736 9.52364L181.838 9.561V16.8851L179.585 16.9225C178.158 16.9225 177.12 17.3357 176.469 18.1621C176.118 18.6376 175.836 19.3383 175.625 20.2644C175.412 21.1877 175.305 22.1323 175.305 23.0798V31.2609H166.964ZM152.097 23.1134C152.353 23.5653 152.713 23.9494 153.148 24.2336C153.946 24.8076 154.906 25.11 155.889 25.0961C157.565 25.0961 158.942 24.5453 160.019 23.4438L160.357 23.1059L152.097 23.1134ZM157.916 16.3194C157.267 15.8352 156.473 15.5834 155.663 15.6044C154.77 15.6101 153.903 15.8997 153.186 16.4315C152.751 16.713 152.411 17.1181 152.209 17.5946H158.744C158.565 17.1145 158.283 16.6792 157.918 16.3194H157.916ZM160.885 23.1134L164.789 27.3197L164.229 27.8798C161.827 30.1338 159.048 31.2602 155.895 31.259C152.691 31.259 150.063 30.2707 148.01 28.2942C145.908 26.3414 144.857 23.6878 144.857 20.3334C144.857 17.004 145.921 14.3635 148.048 12.4119C150.225 10.4354 152.728 9.44649 155.557 9.44524C158.435 9.44524 160.901 10.3339 162.954 12.1113C165.006 13.9148 166.032 16.33 166.032 19.357V23.1115L160.885 23.1134ZM135.503 31.2609V19.736C135.503 18.81 135.366 18.1591 135.091 17.7832C134.941 17.584 134.591 17.4838 134.04 17.4826C133.446 17.4787 132.871 17.6926 132.425 18.0837C132.051 18.4571 131.865 19.0577 131.865 19.8854V31.2609H123.65V9.48071H131.865V10.2275C132.878 9.81917 133.963 9.61488 135.055 9.62634C137.609 9.62634 139.687 10.4273 141.287 12.0291C142.915 13.6061 143.729 15.821 143.727 18.6737V31.2609H135.503ZM122.099 9.51806H113.884V31.1432H122.099V9.51806ZM106.102 21.2389L102.805 24.5491L99.4073 27.96L96.0971 24.663L99.495 21.252L96.0841 17.8541L99.3812 14.5439L102.792 17.9419L106.102 21.2389ZM92.5032 16.8851C92.4771 16.9486 92.4453 17.0084 92.4211 17.0718C91.9308 18.3544 91.6821 19.7165 91.6873 21.0896C91.6914 21.5335 91.7225 21.9768 91.7807 22.417L91.7452 22.4786C91.4584 22.9305 91.0966 23.3302 90.6754 23.6604C90.2302 24.0222 89.6715 24.2152 89.0978 24.2055C88.4456 24.2055 87.9826 24.0811 87.7088 23.8322C87.435 23.5832 87.3037 23.1949 87.3149 22.6672C87.3279 22.1425 87.3335 21.8046 87.3335 21.6534V16.8851H92.5032ZM112.037 31.2609V9.48071H104.454V11.1703L104.19 11.0564C103.81 10.9108 103.418 10.7995 103.018 10.7241C101.221 10.5091 99.3992 10.7545 97.7233 11.4373C96.5047 11.9674 95.4112 12.7479 94.5139 13.7281C93.9587 14.3196 93.4795 14.9781 93.0876 15.6884V9.52738H87.4456V2.43288H79.2309V9.52738H76.52V16.8851H79.2234V23.3804C79.2615 24.2939 79.3998 25.2004 79.636 26.0837C79.9123 27.2363 80.6448 28.3938 81.8334 29.5563C83.0221 30.7188 84.8306 31.2882 87.2589 31.2646C89.0848 31.2397 90.5927 30.9584 91.7826 30.4207C92.9724 29.883 93.8487 29.3136 94.4113 28.7124C94.4971 28.621 94.5643 28.5444 94.6372 28.4641C95.5316 29.3537 96.5974 30.0524 97.7699 30.5178C98.9853 31.0146 100.286 31.2683 101.599 31.2646C102.045 31.2753 102.492 31.244 102.932 31.1713C103.361 31.0736 103.782 30.9419 104.19 30.7773L104.454 30.6653V31.2609H112.037Z" fill="#0A9AD6"/>
<path d="M15.5486 19.6164L20.0536 14.1723L19.4524 13.3845C18.1518 11.9071 16.8007 10.8435 15.3992 10.1938C14.3487 9.69594 12.997 9.4327 11.3441 9.40407H11.2676C10.01 9.40955 8.76159 9.61886 7.57098 10.0239C6.36957 10.417 5.23603 10.9932 4.21042 11.7322C2.97427 12.6198 1.96962 13.7916 1.28114 15.1487V15.1861C0.472854 16.7956 0.0364413 18.5662 0.00412592 20.367C-0.0705531 23.9478 0.868535 26.7483 2.82139 28.7683C3.9985 29.916 5.42451 30.7766 6.98849 31.2832C8.47591 31.7812 10.0371 32.023 11.6055 31.9982C12.8284 32.0181 14.0424 31.7881 15.1733 31.3224C16.0802 30.9624 16.9279 30.4684 17.6881 29.8568C18.212 29.4076 18.6899 28.9072 19.1145 28.3632L19.4524 27.8367L19.5663 27.6127L19.9789 26.8995L16.3738 22.9564L15.2853 21.756L14.5385 23.1058C14.3335 23.3861 14.0807 23.6282 13.7917 23.8209C13.1159 24.2951 12.2646 24.5328 11.2377 24.534C10.3378 24.534 9.54935 24.1457 8.87226 23.369C8.55687 23.0166 8.32011 22.601 8.17775 22.1499C8.01528 21.6591 7.93331 21.1453 7.93504 20.6283C7.92192 19.6386 8.26894 18.6778 8.91147 17.9249C9.61221 17.2254 10.4001 16.8751 11.2751 16.8738C12.0517 16.8738 12.8533 17.1371 13.6797 17.6636C13.9068 17.8196 14.1198 17.9952 14.3164 18.1882C14.4176 18.3005 14.5309 18.4013 14.6543 18.4888L15.5486 19.6164ZM35.9602 20.9532L32.6631 24.2633L29.2727 27.6743L25.9626 24.3772L29.3605 20.9644L25.9495 17.5684L29.2466 14.2563L32.6575 17.6542L35.9602 20.9532ZM40.1777 25.8297C41.1365 24.1725 41.6413 22.2918 41.6413 20.3772C41.6413 18.4626 41.1365 16.5819 40.1777 14.9247C39.2199 13.2909 37.8558 11.9326 36.2179 10.9817C34.557 10.0227 32.6729 9.51791 30.7551 9.51791C28.8373 9.51791 26.9532 10.0227 25.2923 10.9817C23.6535 11.932 22.2886 13.2904 21.3306 14.9247C20.3718 16.5819 19.867 18.4626 19.867 20.3772C19.867 22.2918 20.3718 24.1725 21.3306 25.8297C22.2842 27.4723 23.6497 28.8378 25.2923 29.7914C26.9532 30.7504 28.8373 31.2552 30.7551 31.2552C32.6729 31.2552 34.557 30.7504 36.2179 29.7914C37.8595 28.8372 39.2243 27.4718 40.1777 25.8297ZM76.7089 31.2608V18.3786C76.7089 15.4997 75.8575 13.2469 74.1548 11.6202C72.4522 9.99341 70.2622 9.18002 67.5849 9.18002C65.9333 9.17445 64.3023 9.54677 62.8167 10.2685C62.2152 10.6005 61.6381 10.9748 61.0897 11.3887C60.4119 10.6871 59.5748 10.1594 58.6496 9.85026C57.468 9.37944 56.2042 9.14965 54.9324 9.17442C53.7562 9.17442 52.455 9.49991 51.0286 10.1509V9.4358H42.7691V31.2608H51.0286V19.622C51.0286 18.645 51.2775 17.9318 51.7754 17.4825C52.3498 17.024 53.0683 16.7845 53.8029 16.8066C54.1109 16.8125 54.4157 16.8699 54.7047 16.9765C54.9442 17.0382 55.1636 17.1611 55.3413 17.3331C55.6425 17.7326 55.7931 18.4583 55.7931 19.51V31.2608H63.7184V19.398C63.7421 18.472 63.991 17.821 64.4652 17.4451C65.0314 16.9981 65.7341 16.7594 66.4554 16.7693C67.2022 16.7693 67.6777 16.9193 67.8818 17.2192C68.2552 17.5926 68.4419 18.3562 68.4419 19.51V31.2608H76.7089Z" fill="white"/>
</svg>
