<svg width="40" height="40" viewBox="0 0 40 40" fill="none" xmlns="http://www.w3.org/2000/svg">
<path d="M22.2217 18.5753L19.4715 17.965C18.4254 17.7266 17.2211 17.4117 17.2211 16.4254C17.2211 15.4369 18.0659 14.7463 19.5908 14.7463C22.6642 14.7463 22.3835 16.8584 23.9094 16.8584C24.7123 16.8584 25.4151 16.3863 25.4151 15.5745C25.4151 13.6803 22.3835 12.2588 19.8118 12.2588C17.02 12.2588 14.047 13.4444 14.047 16.6021C14.047 18.1227 14.5902 19.7405 17.5828 20.4909L21.2986 21.4186C22.4232 21.6957 22.7045 22.3284 22.7045 22.899C22.7045 23.8481 21.7618 24.7753 20.0541 24.7753C16.7182 24.7753 17.1812 22.2081 15.3934 22.2081C14.5902 22.2081 14.0073 22.7614 14.0073 23.5509C14.0073 25.0902 15.8762 27.1443 20.0541 27.1443C24.029 27.1443 25.9986 25.2285 25.9986 22.6625C25.9986 21.0057 25.2347 19.2467 22.2217 18.5753Z" fill="white"/>
<path d="M20 0C8.95599 0 0 8.95599 0 20C0 31.044 8.95599 40 20 40C31.044 40 40 31.044 40 20C40 8.95599 31.044 0 20 0ZM30.4129 30.3833C29.0979 31.6989 27.3505 32.4219 25.4913 32.4219C24.2871 32.4219 23.1079 32.1088 22.0663 31.5195C21.3904 31.6394 20.6979 31.7026 20.007 31.7026C18.4195 31.7026 16.879 31.3913 15.4297 30.777C14.0283 30.1862 12.7713 29.3375 11.6907 28.2574C10.6113 27.1777 9.76349 25.9207 9.17175 24.52C8.55774 23.0698 8.24707 21.5302 8.24707 19.9423C8.24707 19.2624 8.30811 18.5815 8.42407 17.9153C7.85248 16.8872 7.54822 15.7239 7.54822 14.5401C7.54822 12.6807 8.27271 10.9323 9.5871 9.61761C10.9021 8.30231 12.6505 7.57812 14.5099 7.57812C15.6488 7.57812 16.7743 7.86224 17.7747 8.39417C17.7765 8.39386 17.7786 8.39386 17.7802 8.39325C18.5095 8.25348 19.2587 8.18298 20.007 8.18298C21.5942 8.18298 23.1345 8.49396 24.5837 9.10706C25.9836 9.6994 27.2421 10.5472 28.3212 11.6269C29.4019 12.7069 30.2493 13.9645 30.8417 15.365C31.4557 16.8149 31.7664 18.3548 31.7664 19.9423C31.7664 20.658 31.6989 21.3742 31.5704 22.074C32.146 23.1061 32.4521 24.2734 32.4521 25.4611C32.4518 27.3206 31.7282 29.0692 30.4129 30.3833Z" fill="white"/>
</svg>
